PathFileType  4	(X/Y/Z) C:\Users\antoi\Documents\MyRepositories\mobilecap\ResultsAnalysis
DataRate	CameraRate	NumFrames	NumMarkers	Units	OrigDataRate	OrigDataStartFrame	OrigNumFrames
100.0	100.0	6	51	mm	100.0	106	141
Frame#	Time	r_knee			r_shank_antsup			r_ankle			r_calc			r_5meta			r_toe			L_knee			L_shank_antsup			L_ankle			L_calc			L_5meta			L_toe			r_sh2			r_sh3			r_sh4			L_sh2			L_sh3			r_thigh1			r_thigh2			r_thigh3			r_thigh4			r_thigh5			L_thigh1			L_thigh2			L_thigh3			L_thigh4			r.ASIS			r.PSIS			L.ASIS			L.PSIS			C7			R_Shoulder			L_Shoulder			R_Sternum			L_Sternum			R_humerus			R_elbow_med			R_elbow_lat			R_forearm			R_wrist_radius			R_wrist_ulna			L_humerus			L_elbow_med			L_elbow_lat			L_forearm			L_wrist_radius			L_wrist_ulna			R_HJC			L_HJC			R_HJC_reg			L_HJC_reg			
		X1	Y1	Z1	X2	Y2	Z2	X3	Y3	Z3	X4	Y4	Z4	X5	Y5	Z5	X6	Y6	Z6	X7	Y7	Z7	X8	Y8	Z8	X9	Y9	Z9	X10	Y10	Z10	X11	Y11	Z11	X12	Y12	Z12	X13	Y13	Z13	X14	Y14	Z14	X15	Y15	Z15	X16	Y16	Z16	X17	Y17	Z17	X18	Y18	Z18	X19	Y19	Z19	X20	Y20	Z20	X21	Y21	Z21	X22	Y22	Z22	X23	Y23	Z23	X24	Y24	Z24	X25	Y25	Z25	X26	Y26	Z26	X27	Y27	Z27	X28	Y28	Z28	X29	Y29	Z29	X30	Y30	Z30	X31	Y31	Z31	X32	Y32	Z32	X33	Y33	Z33	X34	Y34	Z34	X35	Y35	Z35	X36	Y36	Z36	X37	Y37	Z37	X38	Y38	Z38	X39	Y39	Z39	X40	Y40	Z40	X41	Y41	Z41	X42	Y42	Z42	X43	Y43	Z43	X44	Y44	Z44	X45	Y45	Z45	X46	Y46	Z46	X47	Y47	Z47	X48	Y48	Z48	X49	Y49	Z49	X50	Y50	Z50	X51	Y51	Z51	

106	1.05000000	1183.01684	516.91781	-101.29041	1236.21228	434.65607	-108.76437	1223.96230	106.97678	-125.82607	1174.37679	62.77152	-180.95005	1348.70167	76.01979	-81.69599	1375.94353	118.36087	-131.16368	958.86265	502.10234	-360.34665	973.98734	410.66463	-347.15501	832.92211	105.78551	-318.53759	755.63178	71.78133	-267.99142	927.57939	37.60478	-356.94791	980.11961	59.78476	-301.37569	1248.94292	322.48132	-113.53709	1172.10027	424.82630	-69.20237	1178.44360	310.08025	-69.50310	896.69329	442.54448	-382.26536	859.55675	327.18115	-380.58822	1131.45041	793.19297	-77.21687	1177.92449	693.79118	-94.12636	1144.06579	646.71187	-57.07383	1036.78888	743.29112	-45.51764	1087.69672	642.02062	-69.80976	1078.76694	734.95258	-386.49513	1067.77091	598.07261	-357.87288	976.35379	735.13153	-424.03512	963.85543	606.64639	-386.83413	1112.60710	965.66590	-114.50074	912.18894	1002.43453	-194.03324	1119.49683	953.02685	-367.16676	915.37784	1004.64952	-287.91040	1001.80319	1450.75289	-317.80705	1070.87020	1439.48761	-144.89759	1089.36994	1382.57647	-458.73682	1118.39296	1372.74283	-274.88303	1117.97279	1366.25059	-320.02548	1096.90059	1316.65947	-69.82926	990.86672	1124.50445	-72.32013	1005.15268	1144.20830	-9.35221	1056.68585	1078.12177	20.01760	1094.94212	908.86972	16.55437	1062.67944	917.55571	54.79356	1118.48865	1236.23936	-490.42858	1039.48827	1046.09660	-427.11358	1067.73295	1046.15509	-501.75019	1120.53544	991.75431	-500.23650	1175.21282	827.85595	-453.89743	1142.41949	823.24218	-492.31910	1027.77704	880.77638	-135.20083	1030.36277	874.68596	-324.64854	1039.58359	881.80624	-154.37724	1045.25143	885.74842	-321.26122	
107	1.06000000	1194.39598	514.25684	-102.32044	1250.41249	434.64277	-109.93252	1254.28165	106.58054	-127.41679	1205.84048	60.25214	-181.69635	1381.35158	81.53251	-85.56644	1405.61806	125.29773	-135.43948	963.21005	501.91784	-361.04523	977.11423	410.38095	-347.94194	833.37343	106.72618	-318.39858	756.20376	73.32239	-267.82465	927.68637	37.59636	-357.06561	980.36102	59.48344	-301.61785	1268.22808	323.15906	-114.95641	1187.09739	421.97641	-70.18711	1198.49872	307.54448	-70.87236	900.13700	443.08967	-382.67787	861.76765	328.05529	-380.75473	1144.12551	790.65361	-79.85578	1189.83256	690.82282	-96.46343	1156.17652	644.27333	-58.71187	1049.64991	741.63380	-46.39959	1099.68539	639.85174	-70.79236	1087.20788	732.88445	-387.98888	1073.98852	596.13288	-359.33252	984.40501	734.76124	-424.76250	969.91769	606.53184	-387.21456	1125.64885	963.71532	-116.17513	924.76678	1000.18380	-194.91756	1131.39847	951.09561	-368.97592	927.68442	1002.81287	-288.74609	1012.61179	1449.56662	-315.15302	1080.81784	1436.26685	-142.13562	1100.89457	1383.94784	-456.75377	1129.52658	1371.50308	-272.86086	1129.25876	1365.59288	-318.15728	1106.91350	1312.88394	-68.21326	1002.38541	1120.08344	-72.88279	1015.65863	1139.61356	-9.66257	1067.20418	1073.78356	20.16955	1106.78421	904.82568	16.55023	1073.82253	913.08829	54.32537	1130.66571	1237.86653	-489.64900	1051.34647	1046.95601	-428.79288	1081.02399	1047.61253	-502.91052	1134.31561	993.65116	-500.71464	1189.75520	830.12779	-453.94639	1157.88300	825.32513	-492.96586	1040.73919	878.72980	-136.61538	1042.51701	872.75009	-326.07517	1052.54225	879.21202	-156.20899	1057.73413	883.89132	-323.15700	
108	1.07000000	1205.64908	511.43713	-103.22339	1264.28283	434.43882	-111.04649	1283.01632	106.63309	-129.42089	1235.77546	58.32419	-183.01966	1411.83949	87.34558	-89.38357	1433.39627	132.26413	-139.55592	967.92815	501.68457	-361.86736	980.58482	410.02919	-348.86372	833.87431	107.76040	-318.35926	756.81617	74.97348	-267.71556	927.78649	37.53317	-357.19511	980.60504	59.15244	-301.91922	1286.78548	323.79296	-116.44409	1201.74508	419.09019	-71.20141	1217.82826	305.17326	-72.44153	903.96546	443.63577	-383.20024	864.25160	328.95685	-381.03732	1156.83387	787.90963	-82.17714	1201.77287	687.63405	-98.43926	1168.11566	641.57418	-60.22255	1062.42727	739.80182	-47.33362	1111.52543	637.48322	-71.78571	1095.78522	730.74558	-389.51142	1080.50231	594.16514	-360.85690	992.71305	734.30910	-425.54125	976.29827	606.33594	-387.70577	1138.81299	961.51178	-117.77888	937.45581	997.82357	-195.65067	1143.42443	948.94845	-370.69928	940.08686	1000.91740	-289.51556	1023.47814	1448.14316	-312.42049	1090.81682	1432.78743	-139.27541	1112.42784	1385.02636	-454.68208	1140.72182	1370.05225	-270.76600	1140.59398	1364.72499	-316.20497	1116.93251	1308.84849	-66.51568	1014.01261	1115.40062	-73.45051	1026.22881	1134.75208	-9.99186	1077.77074	1069.16929	20.31407	1118.73577	900.57749	16.53135	1085.02232	908.34268	53.81579	1142.84250	1239.19329	-488.77773	1063.21353	1047.49400	-430.52022	1094.29616	1048.82727	-504.06800	1148.09135	995.30339	-501.15377	1204.21311	832.15021	-453.93611	1173.36090	827.20851	-493.57244	1053.75011	876.49135	-137.96154	1054.70704	870.66375	-327.43114	1065.58902	876.38379	-157.99545	1070.27243	881.88552	-324.99468	
109	1.08000000	1216.94443	508.57699	-104.03349	1277.99708	434.05785	-112.16077	1309.92810	106.94778	-131.85800	1263.97027	56.86175	-185.02754	1439.97029	92.98435	-93.12478	1459.14626	138.89753	-143.40312	973.08610	501.41442	-362.82502	984.48455	409.62456	-349.92625	834.49072	108.90540	-318.46671	757.47412	76.77363	-267.68026	927.88427	37.41315	-357.34483	980.84265	58.78143	-302.26768	1304.68672	324.32014	-118.04702	1216.20790	416.23740	-72.23909	1236.50494	302.95985	-74.16463	908.24650	444.18387	-383.84970	867.08206	329.90501	-381.46659	1169.58119	785.03996	-84.10037	1213.79168	684.33156	-100.01677	1179.97315	638.70853	-61.54693	1075.14290	737.82166	-48.29404	1123.30306	634.96940	-72.76158	1104.53650	728.55989	-391.06410	1087.38128	592.19857	-362.44617	1001.35032	733.77964	-426.37002	983.06735	606.07139	-388.32423	1152.07583	959.07951	-119.29908	950.23304	995.42021	-196.23344	1155.56232	946.62216	-372.32966	952.56926	998.99657	-290.20671	1034.44203	1446.53369	-309.59762	1100.91546	1429.10013	-136.31984	1123.96406	1385.82735	-452.52835	1151.99337	1368.42707	-268.60428	1151.99830	1363.68524	-314.16767	1127.00055	1304.61165	-64.72033	1025.78387	1110.50818	-74.03871	1036.87949	1129.67581	-10.34898	1088.39928	1064.32572	20.43908	1130.74572	896.14066	16.47858	1096.26701	903.36913	53.24360	1155.01119	1240.25132	-487.82134	1075.14532	1047.73238	-432.27703	1107.55176	1049.83164	-505.20929	1161.85096	996.73512	-501.54203	1218.60254	833.95659	-453.88534	1188.82107	828.90559	-494.13899	1066.77755	874.09947	-139.23116	1066.90737	868.46653	-328.70827	1078.67154	873.40547	-159.70423	1082.82792	879.75661	-326.74536	
110	1.09000000	1228.48962	505.79785	-104.82179	1291.71385	433.48500	-113.32699	1334.77393	107.28717	-134.70584	1290.17004	55.69786	-187.75012	1465.58873	97.95405	-96.78010	1482.74734	144.81437	-146.91052	978.76757	501.11313	-363.91483	988.90691	409.17224	-351.10632	835.27761	110.17203	-318.74938	758.18413	78.79144	-267.74622	927.99333	37.24304	-357.52083	981.08144	58.36538	-302.64158	1321.96705	324.63963	-119.79394	1230.62182	413.48432	-73.32534	1254.54116	300.88292	-76.00761	913.06509	444.73330	-384.63840	870.36106	330.92249	-382.06375	1182.38485	782.13706	-85.56475	1225.93886	681.03565	-101.19169	1191.87404	635.78336	-62.65294	1087.82676	735.71593	-49.25928	1135.15286	632.37578	-73.70089	1113.54261	726.35788	-392.62334	1094.69318	590.25439	-364.07870	1010.38983	733.17508	-427.24372	990.28827	605.75219	-389.07292	1165.41962	956.46286	-120.72355	963.09478	993.01318	-196.69073	1167.81807	944.17045	-373.87014	965.13406	997.06446	-290.81661	1045.53809	1444.79635	-306.67148	1111.16424	1425.26307	-133.27478	1135.51264	1386.38041	-450.28781	1163.35862	1366.66363	-266.37651	1163.49033	1362.50864	-312.04503	1137.17055	1300.23126	-62.82442	1037.73032	1105.46719	-74.66084	1047.63417	1124.44505	-10.73700	1099.10966	1059.30732	20.53457	1142.77051	891.52724	16.38087	1107.55224	898.22374	52.58780	1167.16573	1241.08661	-486.78538	1087.21054	1047.70237	-434.04155	1120.80049	1050.66706	-506.31738	1175.58811	997.97976	-501.86982	1232.93395	835.58293	-453.81972	1204.21993	830.42813	-494.67233	1079.81920	871.59355	-140.42579	1079.13209	866.19786	-329.90817	1091.77287	870.34935	-161.31120	1095.39634	877.53349	-328.39492	
111	1.10000000	1240.49776	503.20680	-105.69315	1305.54977	432.67566	-114.59219	1357.33741	107.39780	-137.89051	1314.09404	54.62936	-191.10371	1488.58180	101.83140	-100.33714	1504.10573	149.64854	-150.06952	985.06900	500.77301	-365.11598	993.94358	408.65701	-352.35478	836.27107	111.57011	-319.20837	758.96163	81.11170	-267.94470	928.13327	37.03525	-357.72155	981.35535	57.90954	-303.01732	1338.62403	324.62087	-121.69482	1245.05918	410.87424	-74.52014	1271.87998	298.89788	-77.96514	918.51990	445.28239	-385.57200	874.20520	332.02577	-382.83751	1195.28354	779.30465	-86.52826	1238.27513	677.87776	-102.00727	1203.96933	632.90782	-63.55352	1100.50968	733.50714	-50.22106	1147.24250	629.77680	-74.60512	1122.91986	724.17096	-394.14277	1102.51313	588.34465	-365.71099	1019.90014	732.49261	-428.15743	998.02465	605.38384	-389.94090	1178.83625	953.72652	-122.03757	976.06093	990.61382	-197.06374	1180.20995	941.65408	-375.33056	977.80297	995.11867	-291.35030	1056.78901	1442.98774	-303.63207	1121.61090	1421.33662	-130.14843	1147.09751	1386.72926	-447.94699	1174.83703	1364.79566	-264.07934	1175.08549	1361.22446	-309.83673	1147.49869	1295.75968	-60.84165	1049.87587	1100.34452	-75.32555	1058.51935	1119.12466	-11.15275	1109.92752	1054.17365	20.59526	1154.79610	886.76346	16.23173	1118.88414	892.96302	51.83421	1179.30575	1241.75523	-485.67415	1099.47330	1047.44860	-435.78786	1134.05372	1051.38131	-507.37112	1189.29850	999.07566	-502.13133	1247.20506	837.06256	-453.76596	1219.51229	831.79200	-495.18491	1092.90290	869.01485	-141.55000	1091.43030	863.89187	-331.03542	1104.91584	867.26612	-162.79791	1108.00562	875.24553	-329.94146	
